name C:\Users\u0150099\Documents\master_thesis\3dpredictsim\Results\Final\Fal_s1_bCst_tanh100_ig1_v27.mot
datacolumns 126
datarows 4
range 0.29192895 0.30944469
endheader
time	pelvis_tilt	pelvis_list	pelvis_rotation	pelvis_tx	pelvis_ty	pelvis_tz	hip_flexion_l	hip_adduction_l	hip_rotation_l	hip_flexion_r	hip_adduction_r	hip_rotation_r	knee_angle_l	knee_angle_r	ankle_angle_l	ankle_angle_r	subtalar_angle_l	subtalar_angle_r	mtp_angle_l	mtp_angle_r	lumbar_extension	lumbar_bending	lumbar_rotation	arm_flex_l	arm_add_l	arm_rot_l	arm_flex_r	arm_add_r	arm_rot_r	elbow_flex_l	elbow_flex_r	pro_sup_l	pro_sup_r	glut_med1_l/activation	glut_med2_l/activation	glut_med3_l/activation	glut_min1_l/activation	glut_min2_l/activation	glut_min3_l/activation	semimem_l/activation	semiten_l/activation	bifemlh_l/activation	bifemsh_l/activation	sar_l/activation	add_long_l/activation	add_brev_l/activation	add_mag1_l/activation	add_mag2_l/activation	add_mag3_l/activation	tfl_l/activation	pect_l/activation	grac_l/activation	glut_max1_l/activation	glut_max2_l/activation	glut_max3_l/activation	iliacus_l/activation	psoas_l/activation	quad_fem_l/activation	gem_l/activation	peri_l/activation	rect_fem_l/activation	vas_med_l/activation	vas_int_l/activation	vas_lat_l/activation	med_gas_l/activation	lat_gas_l/activation	soleus_l/activation	tib_post_l/activation	flex_dig_l/activation	flex_hal_l/activation	tib_ant_l/activation	per_brev_l/activation	per_long_l/activation	per_tert_l/activation	ext_dig_l/activation	ext_hal_l/activation	ercspn_l/activation	intobl_l/activation	extobl_l/activation	glut_med1_r/activation	glut_med2_r/activation	glut_med3_r/activation	glut_min1_r/activation	glut_min2_r/activation	glut_min3_r/activation	semimem_r/activation	semiten_r/activation	bifemlh_r/activation	bifemsh_r/activation	sar_r/activation	add_long_r/activation	add_brev_r/activation	add_mag1_r/activation	add_mag2_r/activation	add_mag3_r/activation	tfl_r/activation	pect_r/activation	grac_r/activation	glut_max1_r/activation	glut_max2_r/activation	glut_max3_r/activation	iliacus_r/activation	psoas_r/activation	quad_fem_r/activation	gem_r/activation	peri_r/activation	rect_fem_r/activation	vas_med_r/activation	vas_int_r/activation	vas_lat_r/activation	med_gas_r/activation	lat_gas_r/activation	soleus_r/activation	tib_post_r/activation	flex_dig_r/activation	flex_hal_r/activation	tib_ant_r/activation	per_brev_r/activation	per_long_r/activation	per_tert_r/activation	ext_dig_r/activation	ext_hal_r/activation	ercspn_r/activation	intobl_r/activation	extobl_r/activation	
          0.29192895	        -14.91522892	          0.76006051	          1.53137409	          0.78820817	          0.89572611	         -0.00064865	         48.00769736	          3.62751288	         -1.62623223	          6.48670181	          1.51821191	          2.96357830	        -28.08502039	        -38.24869209	         16.61341259	         -5.02291011	         -1.23564491	          7.14691846	         -0.10258297	         12.19770208	          2.30948696	         -2.34879044	          2.76181504	         -6.77954369	        -13.47704509	          4.18343981	          1.98951040	        -14.31054612	         19.38448683	         63.72459842	         36.30221740	         86.51662706	         86.51662706	          0.06606297	          0.22903932	          0.39134070	          0.06606308	          0.06606296	          0.27749279	          0.57863468	          0.06606297	          0.57308927	          0.05001010	          0.11465544	          0.06842839	          0.19890103	          0.46639158	          0.49859908	          0.40798098	          0.06149285	          0.05011460	          0.15760140	          0.42459822	          0.41043150	          0.54364341	          0.06497475	          0.07006911	          0.11535795	          0.10396154	          0.69830515	          0.05000009	          0.09253373	          0.09440333	          0.07574924	          0.06020440	          0.06020438	          0.06020441	          0.21834649	          0.05486556	          0.05486588	          0.29217969	          0.36864617	          0.21459307	          0.53552668	          0.73926410	          0.43333386	          0.22199752	          0.05000001	          0.05000046	          0.09864191	          0.06210803	          0.06020463	          0.10380975	          0.10890281	          0.11534711	          0.07741647	          0.05000008	          0.05000012	          0.06101059	          0.39956427	          0.82388053	          0.23237167	          0.06020378	          0.06893229	          0.05000011	          0.95398411	          0.48590669	          0.14424264	          0.05550243	          0.05000013	          0.05000007	          0.75197220	          0.92714456	          0.66786105	          0.72092188	          0.13886482	          0.61109111	          0.07488722	          0.08016909	          0.07432962	          0.13477208	          0.20770765	          0.07670727	          0.17094580	          0.24239429	          0.26518967	          0.18512155	          0.06404010	          0.07876842	          0.10707360	          0.86873192	          0.78331500	          0.13803645	          0.22340383	          0.05000002	
          0.29776753	        -14.88787345	          0.69102468	          1.44119768	          0.80473372	          0.89426739	         -0.00062285	         47.71693828	          3.74147313	         -1.30543457	          6.88089453	          1.55343060	          2.80818980	        -27.99267491	        -40.06681000	         15.97381388	         -4.87106751	         -1.58987010	          7.70907023	         -0.08358986	         10.07018327	          2.39841688	         -2.37511147	          2.74757332	         -6.76887230	        -13.45888489	          4.21998782	          1.92582989	        -14.29855177	         19.38771564	         63.24624532	         36.20261717	         86.51662706	         86.51662706	          0.06020451	          0.20872812	          0.35663756	          0.06020468	          0.06020458	          0.25288478	          0.52732124	          0.06020458	          0.52226760	          0.05000006	          0.10448778	          0.06248870	          0.18129501	          0.53564421	          0.53961716	          0.41264340	          0.05603968	          0.05001480	          0.18691917	          0.43307026	          0.40702417	          0.52503733	          0.05921280	          0.06385539	          0.14554756	          0.09474226	          0.78283352	          0.05000009	          0.12544144	          0.12579744	          0.10127554	          0.05486546	          0.05486545	          0.05486547	          0.19898351	          0.05000012	          0.05000039	          0.47729184	          0.49009689	          0.22301718	          0.66566337	          0.81231737	          0.59210220	          0.20986732	          0.05000005	          0.05000022	          0.08989433	          0.05660030	          0.05486569	          0.09460389	          0.09924530	          0.10511811	          0.08743282	          0.05017510	          0.05000064	          0.07843196	          0.38979462	          0.75081897	          0.28910383	          0.05486503	          0.06281942	          0.05000008	          0.96687688	          0.62989329	          0.22452607	          0.05058051	          0.05000007	          0.05000004	          0.68528715	          0.84975364	          0.60863511	          0.71524920	          0.12655030	          0.58683455	          0.06824620	          0.07305968	          0.06773805	          0.12282047	          0.18928810	          0.06990485	          0.15578631	          0.22089877	          0.24167261	          0.22934306	          0.05836110	          0.07178323	          0.12155183	          0.90551077	          0.84402600	          0.13274003	          0.23790154	          0.05000002	
          0.30360611	        -14.85806305	          0.63097668	          1.33834953	          0.82125306	          0.89256038	         -0.00060369	         47.39739140	          3.86550330	         -0.97360861	          7.40370130	          1.58801699	          2.63618742	        -28.36024829	        -41.96184035	         15.22507741	         -4.45909990	         -1.96174085	          8.18794053	         -0.06842539	          8.28960326	          2.49099100	         -2.40096480	          2.72059501	         -6.72841548	        -13.45014476	          4.29743853	          1.87838503	        -14.28094662	         19.38432318	         62.66677120	         36.07294565	         86.51662706	         86.51662706	          0.05486557	          0.19021808	          0.34350559	          0.05486574	          0.05486565	          0.23045895	          0.48055829	          0.05486566	          0.47595280	          0.05486547	          0.09522180	          0.07954468	          0.18276134	          0.63116751	          0.49183085	          0.38207952	          0.05107009	          0.06552608	          0.18563324	          0.46354290	          0.45340239	          0.55078387	          0.05396184	          0.05819272	          0.38494911	          0.22649548	          0.84367934	          0.05000004	          0.15480630	          0.15295039	          0.12546083	          0.05000000	          0.05000000	          0.05000000	          0.23761651	          0.05000106	          0.05000011	          0.47519959	          0.44663503	          0.20323999	          0.75933819	          0.86490206	          0.53959453	          0.19737625	          0.05000002	          0.05000015	          0.08192248	          0.05158101	          0.05000025	          0.08621441	          0.09044422	          0.09579623	          0.08878708	          0.05215158	          0.05000087	          0.07147666	          0.35522784	          0.68423626	          0.39834204	          0.05000028	          0.05724868	          0.05000003	          0.97615733	          0.60737059	          0.25274292	          0.05000010	          0.05000004	          0.05000002	          0.62451574	          0.77439731	          0.63594417	          0.65182096	          0.11532781	          0.64071929	          0.06219412	          0.06658074	          0.06173103	          0.11192872	          0.17250199	          0.06370568	          0.14197118	          0.20130948	          0.22024105	          0.24946824	          0.05318568	          0.06541749	          0.23372159	          0.93198486	          0.88772691	          0.15295069	          0.27490929	          0.05000001	
          0.30944469	        -14.82646225	          0.58332167	          1.22130719	          0.83776099	          0.89064081	         -0.00058586	         47.04307413	          3.98165042	         -0.61662005	          8.04193101	          1.61691328	          2.44726473	        -29.21516877	        -43.89776588	         14.33243382	         -3.84949171	         -2.35720666	          8.59358759	         -0.04962798	          6.79274903	          2.58602444	         -2.42832193	          2.68109647	         -6.65745057	        -13.45200189	          4.41890000	          1.84852259	        -14.25602338	         19.37270952	         61.98496226	         35.91464580	         86.51662706	         86.51662706	          0.05000008	          0.17334952	          0.31304356	          0.05000024	          0.05000017	          0.44604224	          0.43794228	          0.05000019	          0.43374521	          0.05000001	          0.08677752	          0.07249151	          0.22801883	          0.63725242	          0.54920055	          0.40792536	          0.05000056	          0.06615217	          0.16917155	          0.43553153	          0.41672965	          0.51238270	          0.06606281	          0.06606283	          0.55727475	          0.20640984	          0.88747733	          0.06020442	          0.23831109	          0.22794281	          0.18760416	          0.07954558	          0.07957734	          0.07599373	          0.21654468	          0.05000005	          0.05000023	          0.43305880	          0.52709370	          0.20808656	          0.69199997	          0.78820238	          0.49174318	          0.17987289	          0.05000000	          0.05462825	          0.07465758	          0.05000015	          0.07249178	          0.07856890	          0.08242362	          0.08730101	          0.08651523	          0.08374381	          0.14276583	          0.06513812	          0.32372622	          0.62355817	          0.56691523	          0.15237732	          0.07819087	          0.05001732	          0.98283758	          0.55352114	          0.31989121	          0.06606275	          0.06606283	          0.06606300	          0.56913356	          0.70572360	          0.57954858	          0.59401738	          0.10510053	          0.66964184	          0.05667874	          0.06067634	          0.05625671	          0.10200286	          0.15720448	          0.05805625	          0.12938118	          0.18345737	          0.20071004	          0.24184083	          0.05000009	          0.05961626	          0.21460261	          0.95104136	          0.91918362	          0.17206194	          0.27490602	          0.05000000	
